<svg xmlns="http://www.w3.org/2000/svg" data-name="Layer 1" viewBox="0 0 512 512" id="upload"><rect width="497" height="497" x="7.5" y="7.503" fill="#fff" rx="30"></rect><path fill="#676e87" d="M504.5,37.50274v60H7.5v-60a29.99808,29.99808,0,0,1,30-30h437A29.998,29.998,0,0,1,504.5,37.50274Z"></path><circle cx="154" cy="437.003" r="22.5" fill="#676e87"></circle><path fill="#dedede" d="M327.95547,97.5l50.698,50.69831A27.34784,27.34784,0,1,1,339.97775,186.874l-41.62951-41.62921V343.29254a27.34824,27.34824,0,1,1-54.69648,0V145.24479L202.02225,186.874a27.34784,27.34784,0,0,1-38.67569-38.67569L214.04453,97.5"></path><path fill="#595f74" d="M327.96,97.50274H214.04l37.62-37.62012c.65-.63989,1.32-1.25,2.02-1.82984.06-.05.12-.09008.18-.14013.64-.51,1.31-1,1.99-1.46.1-.06006.19-.11988.29-.18994.66-.42017,1.33-.82007,2.03-1.19019.1-.05981.2-.10986.3-.15991.7-.35987,1.41-.68994,2.14-.99a2.03992,2.03992,0,0,1,.26-.1001c.74-.2998,1.5-.56982,2.27-.7998.06-.02.13-.03.2-.05.78-.23,1.56994-.42994,2.37994-.59009.05-.00977.11005-.00977.16-.02q1.215-.23987,2.46-.35986c.04,0,.09-.01.13995-.01q1.245-.12012,2.52-.11988,1.275,0,2.52.11988c.05,0,.1.01.13995.01q1.245.1201,2.46.35986c.05.01025.11.01025.16.02.81.16015,1.6.36011,2.37994.59009.07.02.14.03.2.05.77.23,1.53.5,2.27.7998a2.03992,2.03992,0,0,1,.26.1001c.73.3,1.44.63012,2.14.99.1.05.2.1001.3.15991.7.37012,1.37.77,2.03,1.19019.1.07006.19.12988.29.18994.68.46,1.35.95,1.99,1.46.06.05.12.09009.18.14013.7.57984,1.37,1.19,2.02,1.82984Z"></path><path fill="#ffe966" d="M363.65344,186.874a27.34688,27.34688,0,0,1-38.67569,0l-41.62951-41.62921V343.29254a27.34824,27.34824,0,1,1-54.69648,0V145.24479L187.02225,186.874a27.34784,27.34784,0,0,1-38.67569-38.67569l88.315-88.31559.00267-.00238q.96325-.96324,2.02071-1.82648c.0589-.04837.11951-.09288.17871-.14051q.96024-.7734,1.98814-1.46163c.09518-.06335.192-.12226.28777-.18443.65707-.42627,1.33158-.82748,2.026-1.19722.10178-.05416.20445-.10446.30676-.15713q1.043-.53881,2.135-.991c.0865-.03546.17374-.068.26054-.10267.74217-.29646,1.499-.56308,2.2716-.79469.06529-.01944.13094-.03665.19645-.05579.78223-.2279,1.57766-.42435,2.38718-.58281.05194-.01009.10409-.01781.15609-.02775.80827-.15327,1.62766-.27464,2.45945-.35506.04562-.00445.09125-.00608.137-.01038.83178-.07612,1.67283-.12048,2.5245-.12048s1.69272.04436,2.5245.12048c.0457.0043.09133.00593.137.01038.83179.08042,1.65118.20179,2.45945.35506.052.00994.10415.01766.15609.02775.80952.15846,1.60495.35491,2.38718.58281.06551.01914.13116.03635.19645.05579.77258.23161,1.52943.49823,2.2716.79469.0868.03471.174.06721.26054.10267q1.09278.44958,2.135.991c.10231.05267.205.103.30676.15713.69439.36974,1.3689.77095,2.026,1.19722.09578.06217.19259.12108.28777.18443q1.02856.68594,1.98814,1.46163c.0592.04763.11981.09214.17871.14051q1.05483.86376,2.02071,1.82648l.00267.00238,88.315,88.31559A27.34688,27.34688,0,0,1,363.65344,186.874Z"></path><path fill="#ffe236" d="M283.34825 160.24466a8.78682 8.78682 0 0 0-15 6.21327v176.8346A27.35417 27.35417 0 0 1 248.5 369.59087a27.33679 27.33679 0 0 0 8.14 1.04257c14.95364-.34958 26.70825-12.98958 26.70825-27.9473V160.24468zM363.65344 148.19829l-88.315-88.31567-.00269-.00244q-.96323-.96314-2.02069-1.82642c-.0589-.04834-.1195-.09277-.17871-.14038q-.96019-.77343-1.98816-1.46167c-.09515-.06323-.192-.12231-.28772-.18433-.6571-.42627-1.3316-.82763-2.026-1.19726-.1018-.0542-.20447-.10449-.30676-.15723q-1.04306-.53869-2.135-.991c-.08649-.0354-.17377-.06787-.26056-.10278-.74212-.29638-1.499-.563-2.2716-.79443-.06525-.01953-.13092-.03687-.19642-.05591-.78222-.22778-1.57769-.42432-2.3872-.58276-.05194-.01026-.10407-.01783-.15607-.02784-.80829-.15332-1.62768-.27465-2.45947-.355-.0456-.00439-.09125-.0061-.137-.01049-.83173-.07593-1.6728-.12037-2.52448-.12037s-1.69275.04444-2.52448.12037c-.04571.00439-.09136.0061-.137.01049-.83179.08033-1.65118.20166-2.45947.355-.052.01-.10413.01758-.15607.02784-.75335.14746-1.49334.33081-2.223.53857.05438.01563.10992.02832.16418.04419.0655.019.13117.03638.19642.05591.77258.23144 1.52948.498 2.2716.79443.08679.03491.17407.06738.26056.10278q1.09278.44971 2.135.991c.10229.05274.205.103.30676.15723.6944.36963 1.3689.771 2.026 1.19726.09577.062.19257.1211.28772.18433q1.02859.68592 1.98816 1.46167c.05921.04761.11981.092.17871.14038q1.05487.86389 2.02069 1.82642l.00269.00244 88.315 88.31567a27.34744 27.34744 0 0 1-11.83783 45.637 27.34768 27.34768 0 0 0 26.83783-45.637z"></path><path fill="#272a33" d="M154,407.00029a30.054,30.054,0,0,0-29.05121,22.502H52.5a7.5,7.5,0,0,0,0,15h72.44989a30.00418,30.00418,0,0,0,58.10022,0H459.5a7.5,7.5,0,0,0,0-15H183.05121A30.054,30.054,0,0,0,154,407.00029Zm0,45a15,15,0,1,1,15-15A15.01671,15.01671,0,0,1,154,452.00029ZM114.627,46.92705a7.5,7.5,0,1,0,7.5,7.5A7.5,7.5,0,0,0,114.627,46.92705ZM474.5.00029H37.5a37.54227,37.54227,0,0,0-37.5,37.5v437a37.54226,37.54226,0,0,0,37.5,37.5h437a37.54226,37.54226,0,0,0,37.5-37.5v-437A37.54227,37.54227,0,0,0,474.5.00029Zm22.5,474.5a22.52554,22.52554,0,0,1-22.5,22.5H37.5a22.52554,22.52554,0,0,1-22.5-22.5v-369.498H180.93622l-37.89276,37.89258a34.84814,34.84814,0,1,0,49.28222,49.2832l28.82618-28.82715V343.29229a34.84814,34.84814,0,1,0,69.69628,0V163.35088l28.82569,28.82617a34.848,34.848,0,1,0,49.28271-49.28222l-37.89276-37.89258H497ZM231.522,138.31572a7.499,7.499,0,0,0-8.17334,1.625l-41.62988,41.63086a19.84784,19.84784,0,1,1-28.06885-28.06933l88.31494-88.31543.04053-.041c.42188-.41894.88037-.834,1.40186-1.26465l.16113-.127c.47412-.38184.96143-.74023,1.44531-1.0625l.20606-.13184c.49707-.32226.99267-.61523,1.53515-.90234.02442-.01269.13672-.06934.16114-.081.51709-.26758,1.0371-.50977,1.56836-.72754.02832-.01075.14062-.05469.16894-.06543.54883-.21973,1.1001-.41309,1.62109-.56836.03223-.00977.13233-.03809.16455-.04688.55909-.16308,1.1167-.30078,1.65821-.40918.05908-.00976.1416-.02441.17871-.03125.585-.11132,1.12988-.19238,1.72217-.25293.05224-.00488.10937-.00879.16162-.01367a18.98026,18.98026,0,0,1,3.66406-.002c.0625.00683.12549.01172.18848.0166.54785.05469,1.10888.1377,1.71826.25293l.15918.02832c.5459.1084,1.10791.24609,1.67139.41113.019.00586.12841.03516.147.041.53857.16113,1.08984.35449,1.67969.58984l.15087.0586c.50831.209,1.02832.45117,1.59668.74414.00733.0039.16407.083.17139.08593.481.25684.97656.54981,1.45264.8584l.22265.1416c.48828.32618.97559.68457,1.43409,1.05372l.16992.13378c.499.41016.97265.83692,1.40869,1.27051l.04053.041,88.31494,88.31543a19.84537,19.84537,0,0,1,0,28.06836l-.00049.001a19.84595,19.84595,0,0,1-28.06885-.001l-41.62939-41.62989a7.50042,7.50042,0,0,0-12.80323,5.30371V343.29229a19.84814,19.84814,0,1,1-39.69628,0V145.24443A7.49876,7.49876,0,0,0,231.522,138.31572ZM497,90.00225H316.06366l-35.37518-35.375-.05127-.05274c-.80127-.80078-1.66553-1.581-2.521-2.28222-.10791-.08985-.21728-.17676-.27539-.21973-.81934-.66016-1.66894-1.28516-2.53223-1.86133l-.36816-.2373q-1.281-.83056-2.59961-1.53418l-.36914-.18946c-.90039-.46484-1.81738-.89062-2.686-1.248q-.18383-.07617-.36767-.14649c-.96289-.38476-1.93994-.72656-2.91162-1.01758l-.23926-.06835c-1.01709-.29688-2.04395-.54786-3.09961-.75391l-.14941-.02637c-1.0669-.20215-2.12256-.35449-3.063-.44433-.10059-.01075-.20069-.01954-.30274-.02637a33.93377,33.93377,0,0,0-6.31494.001c-.07519.00488-.16308.01269-.21777.01757-1.01514.09766-2.0708.25-3.06836.43946-.063.01074-.2041.03613-.2666.04882-1.00781.19629-2.03467.44727-3.02393.73633l-.27441.07813c-.96436.28906-1.94141.63086-2.90381,1.01562-.123.04688-.24561.09571-.3291.13086-.90772.373-1.82471.79883-2.73926,1.27149l-.37646.19336c-.85645.456-1.72413.96875-2.62647,1.55273l-.32617.21094c-.83838.56054-1.67041,1.1709-2.48828,1.82715-.10547.081-.208.16211-.26514.21093-.90332.74024-1.76758,1.52051-2.56885,2.32129l-.05127.05274-35.37518,35.375H15v-52.502a22.52554,22.52554,0,0,1,22.5-22.5h437a22.52554,22.52554,0,0,1,22.5,22.5ZM54.627,46.92705a7.5,7.5,0,1,0,7.5,7.5A7.5,7.5,0,0,0,54.627,46.92705Zm30,0a7.5,7.5,0,1,0,7.5,7.5A7.5,7.5,0,0,0,84.627,46.92705Z"></path></svg>